<?xml version="1.0" encoding="UTF-8"?>
<svg xmlns="http://www.w3.org/2000/svg" xmlns:xlink="http://www.w3.org/1999/xlink" width="16px" height="16px" viewBox="0 0 16 16" version="1.1">
<g id="surface1">
<path style=" stroke:none;fill-rule:nonzero;fill:rgb(87%,87%,90%);fill-opacity:1;" d="M 1.289062 6.75 L 1.679688 6.75 L 1.679688 10.066406 L 1.289062 10.066406 Z M 1.765625 10.066406 L 1.765625 6.75 L 2.15625 6.75 L 2.15625 10.066406 Z M 1.765625 10.066406 "/>
<path style=" stroke:none;fill-rule:nonzero;fill:rgb(87%,87%,90%);fill-opacity:1;" d="M 3.183594 10.070312 L 2.820312 10.070312 L 2.820312 6.707031 C 2.820312 6.675781 2.835938 6.652344 2.886719 6.695312 L 4.929688 8.429688 L 4.929688 6.75 L 5.292969 6.75 L 5.292969 9.207031 L 3.183594 7.433594 Z M 3.625 8.398438 L 3.625 10.070312 L 3.265625 10.070312 L 3.265625 7.621094 L 5.378906 9.390625 L 5.378906 6.75 L 5.738281 6.75 L 5.738281 10.117188 C 5.738281 10.15625 5.722656 10.171875 5.671875 10.128906 Z M 3.625 8.398438 "/>
<path style=" stroke:none;fill-rule:nonzero;fill:rgb(87%,87%,90%);fill-opacity:1;" d="M 6.378906 6.75 L 7.632812 6.75 C 8.566406 6.75 9.269531 7.378906 9.269531 8.40625 C 9.269531 9.4375 8.566406 10.066406 7.632812 10.066406 L 6.378906 10.066406 Z M 6.769531 9.738281 L 7.585938 9.738281 C 8.300781 9.738281 8.882812 9.140625 8.882812 8.410156 C 8.882812 7.675781 8.300781 7.082031 7.585938 7.082031 L 6.769531 7.082031 Z M 6.855469 7.171875 L 7.585938 7.171875 C 8.253906 7.171875 8.792969 7.726562 8.792969 8.410156 C 8.792969 9.09375 8.253906 9.648438 7.585938 9.648438 L 6.855469 9.648438 Z M 7.535156 9.316406 C 8.0625 9.316406 8.386719 8.960938 8.386719 8.410156 C 8.386719 7.859375 8.0625 7.503906 7.535156 7.503906 L 7.246094 7.503906 L 7.246094 9.316406 Z M 7.535156 9.316406 "/>
<path style=" stroke:none;fill-rule:nonzero;fill:rgb(87%,87%,90%);fill-opacity:1;" d="M 9.738281 6.75 L 12.011719 6.75 L 12.011719 7.082031 L 10.128906 7.082031 L 10.128906 9.742188 L 12.078125 9.742188 L 12.078125 10.070312 L 9.738281 10.070312 Z M 11.777344 8.355469 L 10.214844 8.355469 L 10.214844 7.167969 L 12.011719 7.167969 L 12.011719 7.496094 L 10.605469 7.496094 L 10.605469 8.042969 L 11.777344 8.042969 Z M 12.078125 9.652344 L 10.214844 9.652344 L 10.214844 8.445312 L 11.777344 8.445312 L 11.777344 8.753906 L 10.605469 8.753906 L 10.605469 9.328125 L 12.078125 9.328125 L 12.078125 9.660156 Z M 12.078125 9.652344 "/>
<path style=" stroke:none;fill-rule:nonzero;fill:rgb(87%,87%,90%);fill-opacity:1;" d="M 12.515625 6.75 L 12.953125 6.75 L 13.878906 8.261719 L 12.734375 10.066406 L 12.335938 10.066406 L 13.453125 8.285156 Z M 13.933594 8.339844 L 14.988281 10.066406 L 14.558594 10.066406 L 13.90625 8.9375 L 13.238281 10.066406 L 12.84375 10.066406 Z M 13.058594 6.75 L 13.484375 6.75 L 13.96875 7.589844 L 14.449219 6.75 L 14.839844 6.75 L 13.9375 8.1875 Z M 15.097656 10.066406 L 13.992188 8.261719 L 14.945312 6.75 L 15.34375 6.75 L 14.40625 8.246094 L 15.519531 10.070312 L 15.089844 10.070312 Z M 15.097656 10.066406 "/>
<path style=" stroke:none;fill-rule:nonzero;fill:rgb(87%,87%,90%);fill-opacity:1;" d="M 2.933594 2.980469 L 4.316406 2.980469 C 4.949219 2.980469 5.359375 3.28125 5.359375 3.828125 C 5.382812 4.136719 5.203125 4.425781 4.917969 4.527344 C 5.269531 4.609375 5.511719 4.941406 5.488281 5.308594 C 5.488281 5.902344 5.0625 6.253906 4.269531 6.253906 L 2.9375 6.253906 L 2.9375 2.980469 Z M 4.199219 4.261719 C 4.433594 4.261719 4.523438 4.148438 4.523438 3.96875 C 4.53125 3.882812 4.503906 3.796875 4.441406 3.738281 C 4.378906 3.675781 4.292969 3.652344 4.207031 3.667969 L 3.757812 3.667969 L 3.757812 4.253906 L 4.199219 4.253906 Z M 4.269531 5.5625 C 4.546875 5.5625 4.640625 5.433594 4.640625 5.222656 C 4.640625 5.007812 4.542969 4.886719 4.269531 4.886719 L 3.757812 4.886719 L 3.757812 5.5625 Z M 4.269531 5.5625 "/>
<path style=" stroke:none;fill-rule:nonzero;fill:rgb(87%,87%,90%);fill-opacity:1;" d="M 6.007812 2.980469 L 6.863281 2.980469 L 6.863281 6.25 L 6.007812 6.25 Z M 6.007812 2.980469 "/>
<path style=" stroke:none;fill-rule:nonzero;fill:rgb(87%,87%,90%);fill-opacity:1;" d="M 9.335938 2.980469 L 10.257812 2.980469 L 9.199219 4.398438 L 10.386719 6.25 L 9.378906 6.25 L 8.617188 5.0625 L 8.351562 5.398438 L 8.351562 6.25 L 7.496094 6.25 L 7.496094 2.980469 L 8.351562 2.980469 L 8.351562 4.347656 Z M 9.335938 2.980469 "/>
<path style=" stroke:none;fill-rule:nonzero;fill:rgb(87%,87%,90%);fill-opacity:1;" d="M 10.773438 2.980469 L 13.007812 2.980469 L 13.007812 3.71875 L 11.625 3.71875 L 11.625 4.257812 L 12.78125 4.257812 L 12.78125 4.953125 L 11.625 4.953125 L 11.625 5.519531 L 13.074219 5.519531 L 13.074219 6.253906 L 10.773438 6.253906 Z M 10.773438 2.980469 "/>
<path style=" stroke:none;fill-rule:nonzero;fill:rgb(20.392157%,59.607846%,85.882354%);fill-opacity:1;" d="M 1.984375 6.25 C 1.496094 4.777344 1.121094 3.265625 0.867188 1.734375 C 5.546875 0.5 10.457031 0.503906 15.132812 1.746094 C 14.871094 3.273438 14.492188 4.78125 14 6.25 L 14.816406 6.25 C 15.320312 4.707031 15.703125 3.125 15.957031 1.519531 L 16.011719 1.171875 L 15.683594 1.078125 C 13.179688 0.371094 10.597656 0.015625 8.003906 0.0234375 C 5.414062 0.0078125 2.828125 0.359375 0.332031 1.070312 L 0.0117188 1.167969 L 0.0625 1.507812 C 0.308594 3.117188 0.683594 4.703125 1.179688 6.25 L 1.996094 6.25 Z M 1.984375 6.25 "/>
<path style=" stroke:none;fill-rule:nonzero;fill:rgb(20.392157%,59.607846%,85.882354%);fill-opacity:1;" d="M 12.085938 10.558594 C 11.082031 12.289062 9.738281 13.957031 7.980469 15.0625 C 6.21875 13.957031 4.882812 12.289062 3.882812 10.558594 L 2.992188 10.558594 C 4.105469 12.589844 5.660156 14.601562 7.785156 15.863281 L 7.976562 15.976562 L 8.167969 15.863281 C 10.292969 14.601562 11.851562 12.589844 12.972656 10.558594 L 12.082031 10.558594 Z M 12.085938 10.558594 "/>
</g>
</svg>
